<?xml version="1.0" encoding="utf-8"?>
<!-- Generator: Adobe Illustrator 23.0.3, SVG Export Plug-In . SVG Version: 6.00 Build 0)  -->
<svg class="w-5 h-5 stroke-current" version="1.1" id="Layer_1" xmlns="http://www.w3.org/2000/svg" xmlns:xlink="http://www.w3.org/1999/xlink" x="0px" y="0px"
	 viewBox="0 0 387.9 387.9" style="enable-background:new 0 0 387.9 387.9;" xml:space="preserve">
<path d="M231.3,258.4c-7.1-0.2-14.6-1.7-21.5-5.1c-30.3-15.2-54.5-36.7-69.6-67.6c-2.5-5.1-4.5-10.4-5.8-15.9
	c-3.4-14.7,2-28.8,14.2-37.2c6.8-4.7,11.9-3.9,16.5,2.9c5,7.3,10.3,14.3,14.3,22.2c3.1,6.1,4.1,11.6-1.4,17.7
	c-6.9,7.6-6.5,16.1,0,23.9c4,4.9,8.2,9.7,12.6,14.1c7.3,7.4,14.8,8.4,24.1,3.9c1.2-0.6,2.5-1.1,3.5-1.9c7.9-6.6,15.4-5.4,23,0.5
	c5.5,4.3,11.7,7.6,16.7,12.6c5.8,5.7,6,9.5,1.4,16.3C252.8,254.6,243.2,258.2,231.3,258.4z"/>
</svg>
